<svg xmlns="http://www.w3.org/2000/svg" viewBox="0 0 107.65 151.37"><defs><style>.cls-1{fill:#61ba9e;}</style></defs><g id="Capa_2" data-name="Capa 2"><g id="Capa_1-2" data-name="Capa 1"><path class="cls-1" d="M93.69,0c3.09,10.3,6.5,19.66,8.68,29.29,6.18,27.33,7.72,54.87.36,82.21a83,83,0,0,1-10,22.66C83.47,148.69,68.49,154.23,51.23,150a247.24,247.24,0,0,1-29-9.15C7.84,135.34.51,124.61,0,109.85-.7,86.2,8.72,66,24.35,48.37,42.93,27.41,66.88,13.25,93.69,0Zm-10,88.16c1.08-1.88,2.32-3.73,3.23-5.73a34.21,34.21,0,0,0,2.4-6.66c1.52-6.72-2.32-11.49-9.53-11.2-4.66.18-9.28,1.49-14,2.3-2.52-3.28-4.85-7.14-8-10.21-5.7-5.54-12.28-4.54-15.9,2.41-2,3.84-3,8.16-4.31,11.94-4.76.71-9.59.88-14,2.22-7.3,2.19-9.27,7.2-5.27,13.4,2.54,3.94,6.11,7.27,9,10.61-1.74,4-3.81,7.73-5.05,11.73-2.28,7.32,1.91,12.5,9.93,12.1,4.48-.23,8.89-1.55,13.41-2.4,2.07,2.9,4,6.18,6.47,9C58.68,135,66,133.9,70,124.93a107.23,107.23,0,0,0,3.59-10.5c4.62-.54,8.9-.63,13-1.61,8.09-2,10.59-8.07,6-14.72C90.16,94.64,86.9,91.72,83.67,88.16Z"/><path class="cls-1" d="M69.25,95.36c.1,3.13-8.27,11.36-11.73,11.55A14.89,14.89,0,0,1,42.29,89.73c.6-4.12,6.86-9.42,11.55-10.64C62.1,76.94,69,85.11,69.25,95.36Zm-6.43-2.71a6.86,6.86,0,0,0-7.34-6.93c-4,.09-7.41,3.42-7.3,7.2a7.51,7.51,0,0,0,7.57,7A7,7,0,0,0,62.82,92.65Z"/><path class="cls-1" d="M81.86,91.57c2.48,2.67,5.32,5.2,7.48,8.18,3.53,4.87,2.24,8.14-3.89,9.6-3.64.86-7.52.75-11.13,1.06C71.56,102.18,74.38,96.48,81.86,91.57Z"/><path class="cls-1" d="M62.18,68.24c-6,5.91-12.22,7.35-20.47,3.07,1.12-3.42,1.91-7.52,3.78-11.09,2.37-4.51,6.1-4.89,9.77-1.14C58,61.85,60,65.24,62.18,68.24Z"/><path class="cls-1" d="M30.49,99.57c8.61,2.19,12.56,7.11,13.09,15.63-3.41.73-7,1.92-10.71,2.2-6.47.49-9-2.5-7-8.36C26.94,105.75,28.91,102.72,30.49,99.57Z"/><path class="cls-1" d="M49,117.39c6.22-6.1,12.49-7.27,20.66-3.19-1.29,3.64-2.27,7.84-4.23,11.56s-5.78,4.08-8.77,1.24S51.49,120.54,49,117.39Z"/><path class="cls-1" d="M81,85.93c-9-2.14-12.66-7.21-13.35-15.68,4.06-.7,8.23-1.82,12.44-2,4.66-.22,6.9,2.46,5.65,6.85C84.7,78.86,82.63,82.38,81,85.93Z"/><path class="cls-1" d="M36.75,75.05c2.06,8.18.49,14.21-7.4,18.85-2.52-2.85-5.7-5.86-8.13-9.36s-1.27-6.78,3-7.85C28.33,75.66,32.67,75.55,36.75,75.05Z"/><path class="cls-1" d="M57.22,75.8l6.53-3.35,2.46,6.64Z"/><path class="cls-1" d="M48.59,77.1l-7,5.59V75.94Z"/><path class="cls-1" d="M63.61,107.63l6-4.7v6.35l-5.52-.43Z"/><path class="cls-1" d="M73.18,94.62c-.53-3.3-.86-5.35-1.37-8.59L78,89.32Z"/><path class="cls-1" d="M45,106.41l8.82,3.28L47.64,113Z"/><path class="cls-1" d="M33.23,96.25l4.83-5c.57,3,1,5.18,1.6,8.42Z"/></g></g></svg>